<svg id="Layer_1" enable-background="new 0 0 512 512" viewBox="0 0 512 512" xmlns="http://www.w3.org/2000/svg" xmlns:xlink="http://www.w3.org/1999/xlink" width="300" height="300" version="1.1" xmlns:svgjs="http://svgjs.dev/svgjs"><g width="100%" height="100%" transform="matrix(1,0,0,1,0,0)"><linearGradient id="lg1"><stop stop-opacity="1" stop-color="#ffc000" offset="0"/><stop stop-opacity="1" stop-color="#ebb000" offset="1"/></linearGradient><linearGradient id="SVGID_1_" gradientUnits="userSpaceOnUse" x1="106.147" x2="106.147" xlink:href="#lg1" y1="-3.267" y2="505.797"/><linearGradient id="SVGID_00000169558372302601463290000005120921601048040599_" gradientUnits="userSpaceOnUse" x1="312.115" x2="312.115" xlink:href="#lg1" y1="-3.267" y2="505.797"/><linearGradient id="SVGID_00000165919744774348505440000016895155778017663626_" gradientUnits="userSpaceOnUse" x1="254.902" x2="254.902" xlink:href="#lg1" y1="-3.267" y2="505.797"/><linearGradient id="SVGID_00000007412655785985187030000011725084178129639082_" gradientUnits="userSpaceOnUse" x1="256" x2="256" xlink:href="#lg1" y1="-3.267" y2="505.797"/><g><path d="m100.425 305.983h-17.164v68.656h17.164c15.774 0 28.607-15.4 28.607-34.328s-12.833-34.328-28.607-34.328z" fill="url(#SVGID_1_)" data-original-color="lg1" stroke="none" stroke-opacity="1"/><path d="m302.881 351.754h18.468l-9.234-24.624z" fill="url(#SVGID_00000169558372302601463290000005120921601048040599_)" data-original-color="lg1" stroke="none" stroke-opacity="1"/><circle cx="254.902" cy="214.442" fill="url(#SVGID_00000165919744774348505440000016895155778017663626_)" r="22.885" data-original-color="lg1" stroke="none" stroke-opacity="1"/><path d="m483.069 224.282c-.831-3.554-1.761-7.14-2.76-10.657-3.843-13.506-8.955-26.765-15.195-39.405-4.049-8.199-8.643-16.277-13.656-24.01-5.008-7.724-10.508-15.215-16.348-22.263-5.948-7.178-12.38-14.057-19.117-20.445-6.953-6.594-14.389-12.818-22.107-18.5-3.985-2.934-8.117-5.778-12.285-8.453-1.187-.762-2.386-1.516-3.593-2.259-2.584 9.225-6.519 21.329-11.853 32.473-5.736 11.983-17.566 19.465-30.874 19.529-.056.001-.114.001-.17.001-13.314.001-25.209-7.406-31.071-19.362-24.638-50.25-48.092-88.897-67.038-110.931-.977 27.884-4.094 55.418-14.259 82.952-10.509 28.47-38.807 52.748-72.574 44.063-16.99-4.37-24.41-17.751-28.434-30.903-46.131 34.199-78.593 81.908-92.13 135.894-15.017 59.888-4.811 121.366 28.74 173.107 34.043 52.502 86.495 88.605 147.692 101.657 61.196 13.049 123.812 1.49 176.316-32.552 81.335-52.739 122.124-151.788 101.498-246.471-.252-1.159-.513-2.313-.782-3.465zm-382.644 173.243h-28.606c-6.32 0-11.443-5.124-11.443-11.443v-91.541c0-6.319 5.123-11.443 11.443-11.443h28.607c28.393 0 51.492 25.666 51.492 57.213 0 31.548-23.1 57.214-51.493 57.214zm62.935-148.755v-22.885h-34.328v22.885c0 6.32-5.123 11.442-11.443 11.442s-11.443-5.122-11.443-11.442v-68.656c0-6.32 5.123-11.443 11.443-11.443s11.443 5.123 11.443 11.443v22.886h34.328v-22.885c0-6.32 5.123-11.443 11.443-11.443s11.443 5.123 11.443 11.443v68.656c0 6.32-5.123 11.442-11.443 11.442s-11.443-5.123-11.443-11.443zm68.656 80.099c6.32 0 11.443 5.124 11.443 11.443s-5.123 11.443-11.443 11.443h-34.328v22.885h34.328c6.32 0 11.443 5.123 11.443 11.443 0 6.319-5.123 11.443-11.443 11.443h-45.771c-6.32 0-11.443-5.124-11.443-11.443v-91.541c0-6.319 5.123-11.443 11.443-11.443h45.771c6.32 0 11.443 5.124 11.443 11.443s-5.123 11.443-11.443 11.443h-34.328v22.885h34.328zm22.886-68.656c-25.238 0-45.771-20.532-45.771-45.77s20.533-45.771 45.771-45.771 45.771 20.533 45.771 45.771c-.001 25.238-20.534 45.77-45.771 45.77zm95.559 136.583c-1.324.496-2.682.732-4.016.732-4.634 0-8.993-2.834-10.716-7.428l-5.798-15.461h-35.632l-5.798 15.461c-2.219 5.916-8.81 8.915-14.732 6.696-5.917-2.219-8.915-8.814-6.696-14.732l34.328-91.541c1.675-4.465 5.945-7.424 10.714-7.424s9.039 2.959 10.714 7.424l34.328 91.541c2.219 5.918-.779 12.513-6.696 14.732zm18.867-136.583c-6.319 0-11.443-5.122-11.443-11.442v-57.213h-22.885c-6.319 0-11.443-5.123-11.443-11.443s5.124-11.443 11.443-11.443h68.656c6.319 0 11.443 5.123 11.443 11.443s-5.124 11.443-11.443 11.443h-22.885v57.213c0 6.319-5.123 11.442-11.443 11.442zm68.657 125.869h-45.771c-6.319 0-11.443-5.123-11.443-11.443v-80.099c0-6.319 5.123-11.443 11.443-11.443 6.319 0 11.443 5.124 11.443 11.443v68.656h34.328c6.319 0 11.443 5.123 11.443 11.443-.001 6.319-5.124 11.443-11.443 11.443z" fill="url(#SVGID_00000007412655785985187030000011725084178129639082_)" data-original-color="lg1" stroke="none" stroke-opacity="1"/></g></g></svg>